<svg width="47" height="46" viewBox="0 0 47 46" fill="none" xmlns="http://www.w3.org/2000/svg">
<path d="M23.5 42.1667C34.0854 42.1667 42.6666 33.5855 42.6666 23C42.6666 12.4145 34.0854 3.83333 23.5 3.83333C12.9145 3.83333 4.33331 12.4145 4.33331 23C4.33331 33.5855 12.9145 42.1667 23.5 42.1667Z" stroke="white" stroke-width="3" stroke-linecap="round" stroke-linejoin="round"/>
<path d="M15.8334 5.75H17.75C14.0125 16.9433 14.0125 29.0567 17.75 40.25H15.8334" stroke="white" stroke-width="3" stroke-linecap="round" stroke-linejoin="round"/>
<path d="M29.25 5.75C32.9875 16.9433 32.9875 29.0567 29.25 40.25" stroke="white" stroke-width="3" stroke-linecap="round" stroke-linejoin="round"/>
<path d="M6.25 30.6667V28.75C17.4433 32.4875 29.5567 32.4875 40.75 28.75V30.6667" stroke="white" stroke-width="3" stroke-linecap="round" stroke-linejoin="round"/>
<path d="M6.25 17.25C17.4433 13.5125 29.5567 13.5125 40.75 17.25" stroke="white" stroke-width="3" stroke-linecap="round" stroke-linejoin="round"/>
</svg>
